<svg width="160" height="30" viewBox="0 0 160 30" fill="none" xmlns="http://www.w3.org/2000/svg">
    <!-- Icon: stylized S -->
    <path d="M28 8.7L26.8 13L25.97 12.18L21.78 16.13L18.78 18.97L16.33 21.29L14.01 18.97L12.92 17.87L11.57 16.52L11.17 16.11L8.95 13.89L8.10 14.72L7.82 14.99L6.47 16.30L5.12 17.60L3.72 18.95L3.70 18.97L1.71 20.89L0 22.55L2.72 18.97L6.47 14.03L7.82 12.27L8.98 10.73L11.57 13.33L12.68 14.44L12.92 14.68L16.37 18.14L16.68 17.85L18.03 16.58L18.63 16.01L20.37 14.36L21.78 13.03L24.37 10.59L23.57 9.80L28 8.71Z" fill="#2DFF34"/>
    <path d="M6.47 8.7V14.03L2.72 18.97H2.71V8.7H6.47Z" fill="#FFCE5F"/>
    <path d="M27.15 16.01C27.15 23.73 20.69 30 12.74 30C8.69 30 4.92 28.35 2.25 25.60C1.72 25.05 1.24 24.48 0.81 23.85L2.47 22.26L5.13 19.68L5.87 18.97L6.47 18.39L7.82 17.08L8.12 16.80L8.82 16.11L8.93 16.00L9 15.94L11.57 18.53L12.69 19.65L16.38 23.35L18.63 21.22L20.38 19.58L21.03 18.97L21.78 18.26L24.38 15.80L16.33 26.50L11.18 21.33L8.96 19.10L8.11 19.93L5.13 22.81L3.87 24.03C6.12 26.36 9.31 27.77 12.74 27.77C19.42 27.77 24.87 22.50 24.87 16.01H27.15V16.01Z" fill="#00B7FF"/>

    <!-- Text: Stock-Bit scaled to icon height -->
    <text x="35" y="23" font-family="Poppins, sans-serif" font-weight="700" font-size="18" fill="white">Stock-Bit</text>
</svg>
